<?xml version="1.0" standalone="no"?>
<!DOCTYPE svg PUBLIC "-//W3C//DTD SVG 20010904//EN"
 "http://www.w3.org/TR/2001/REC-SVG-20010904/DTD/svg10.dtd">
<svg version="1.0" xmlns="http://www.w3.org/2000/svg"
 width="225.000000pt" height="225.000000pt" viewBox="0 0 225.000000 225.000000"
 preserveAspectRatio="xMidYMid meet">
<metadata>
Created by potrace 1.14, written by Peter Selinger 2001-2017
</metadata>
<g transform="translate(0.000000,225.000000) scale(0.100000,-0.100000)"
fill="#000000" stroke="none">
<path d="M966 2210 c-151 -24 -330 -94 -457 -180 -88 -60 -219 -189 -280 -277
-68 -99 -132 -237 -165 -358 -40 -148 -40 -392 0 -540 54 -199 156 -373 299
-512 140 -136 300 -227 492 -279 91 -25 116 -27 270 -27 154 0 179 2 270 27
199 54 373 156 512 299 136 140 227 300 279 492 25 91 27 116 27 270 0 154 -2
179 -27 270 -54 199 -156 373 -299 512 -141 137 -303 228 -492 278 -112 30
-322 42 -429 25z m336 -45 c379 -66 690 -329 818 -690 193 -549 -95 -1150
-645 -1345 -549 -193 -1150 95 -1345 645 -240 681 263 1398 986 1404 56 1 140
-6 186 -14z"/>
<path d="M1027 2000 c4 -36 7 -83 9 -105 3 -55 3 -55 12 -55 5 0 2 44 -5 98
-16 118 -24 151 -16 62z"/>
<path d="M1082 1953 c-1 -62 1 -113 6 -113 4 0 6 35 4 77 -5 137 -9 151 -10
36z"/>
<path d="M1126 2038 c-3 -13 -5 -63 -4 -113 1 -65 3 -74 5 -33 l4 57 37 -5
c40 -4 35 0 -10 10 -21 5 -28 12 -28 29 0 51 11 66 49 70 l36 4 -41 1 c-35 2
-43 -1 -48 -20z"/>
<path d="M1267 2035 c-17 -16 -41 -137 -36 -175 3 -20 11 -26 35 -28 39 -4 48
9 63 82 16 85 14 114 -8 126 -26 14 -37 13 -54 -5z m63 -34 c0 -34 -22 -136
-32 -148 -15 -18 -48 -16 -55 4 -10 26 15 156 34 170 20 15 53 0 53 -26z"/>
<path d="M947 1943 c7 -54 15 -102 18 -108 5 -10 0 44 -11 130 l-5 40 37 -63
c20 -35 38 -61 41 -59 5 6 -79 157 -87 157 -4 0 -1 -44 7 -97z"/>
<path d="M868 1927 l3 -102 -56 83 c-31 46 -59 82 -61 79 -3 -2 10 -50 27
-106 18 -55 34 -99 36 -97 3 2 -5 35 -16 72 -11 37 -19 69 -17 71 1 2 22 -28
47 -65 l44 -67 5 83 5 84 19 -66 c10 -37 22 -69 27 -72 5 -3 7 1 5 8 -42 133
-60 184 -65 190 -3 4 -5 -39 -3 -95z"/>
<path d="M1397 1988 c-23 -36 -49 -125 -45 -155 2 -22 9 -29 31 -31 40 -5 50
8 77 93 27 85 22 108 -23 113 -18 2 -30 -4 -40 -20z m64 -4 c11 -13 9 -27 -11
-85 -25 -75 -39 -93 -67 -87 -26 5 -27 40 -3 105 32 85 52 102 81 67z"/>
<path d="M1495 1874 c-48 -92 -49 -96 -31 -110 22 -15 45 -18 63 -6 15 9 83
138 83 157 0 13 -45 55 -59 55 -3 0 -28 -43 -56 -96z m89 60 c9 -8 16 -17 16
-20 0 -16 -73 -146 -85 -150 -7 -3 -23 -1 -34 5 -20 11 -20 13 21 96 24 47 48
85 55 85 6 0 19 -7 27 -16z"/>
<path d="M642 1938 c-20 -20 -14 -57 24 -124 41 -73 46 -78 79 -70 42 11 42
47 -2 128 -30 57 -45 74 -64 76 -13 2 -30 -3 -37 -10z m90 -73 c44 -82 45 -91
17 -105 -27 -15 -43 -1 -80 72 -31 62 -36 93 -16 101 28 12 44 -1 79 -68z"/>
<path d="M1400 1543 c-44 -54 -97 -122 -117 -151 -35 -50 -36 -55 -26 -94 l11
-42 -71 -103 c-55 -81 -74 -101 -83 -91 -6 7 -39 54 -73 104 -58 86 -60 93
-50 123 14 40 5 102 -23 159 -41 81 -170 181 -235 182 -85 1 -56 -199 45 -311
50 -56 92 -79 144 -79 30 0 39 -9 106 -103 40 -56 74 -105 75 -109 5 -18 -128
-183 -221 -273 -82 -80 -102 -106 -102 -128 0 -48 16 -67 59 -67 49 0 64 17
101 114 38 99 51 122 122 234 l60 92 27 -37 c63 -88 122 -193 151 -270 42
-111 61 -133 111 -133 33 0 41 4 49 26 21 54 13 69 -76 151 -47 43 -122 125
-165 182 l-79 103 57 82 c99 141 94 136 131 136 26 0 42 8 66 33 31 34 191
295 184 302 -2 2 -46 -57 -98 -131 -52 -74 -98 -134 -102 -134 -18 0 -3 27 80
148 98 142 105 152 99 152 -3 0 -46 -58 -97 -130 -94 -133 -120 -163 -120
-140 0 6 44 75 97 152 53 78 92 138 86 135 -6 -4 -54 -68 -108 -142 -53 -74
-101 -132 -106 -129 -6 4 -5 13 3 25 7 10 50 73 96 139 45 66 80 120 78 120
-3 0 -41 -44 -86 -97z"/>
<path d="M397 652 c-37 -25 -65 -47 -63 -50 3 -2 19 6 37 18 28 21 32 22 41 7
5 -10 14 -17 20 -17 6 0 3 9 -6 19 -16 18 -16 20 6 35 27 19 45 20 51 4 4 -8
6 -9 6 -2 1 6 -5 16 -11 22 -9 7 -32 -3 -81 -36z"/>
<path d="M1789 650 c16 -35 86 -98 98 -87 2 3 -12 15 -32 27 -19 12 -45 40
-56 61 -25 51 -33 50 -10 -1z"/>
<path d="M466 625 c-11 -8 -15 -15 -9 -15 6 0 16 7 23 15 16 19 11 19 -14 0z"/>
<path d="M451 580 c-34 -28 -61 -54 -61 -57 0 -4 11 4 24 17 27 24 56 22 56
-6 0 -8 -10 -25 -22 -35 l-23 -20 24 11 c13 7 25 20 28 29 2 9 18 22 34 28 16
6 29 16 29 23 0 7 -6 5 -16 -4 -19 -20 -38 -20 -53 -2 -9 11 -6 18 16 36 26
20 28 20 40 4 7 -10 13 -13 13 -7 0 6 -6 16 -14 22 -11 9 -26 2 -75 -39z"/>
<path d="M968 613 c7 -3 16 -2 19 1 4 3 -2 6 -13 5 -11 0 -14 -3 -6 -6z"/>
<path d="M1007 613 c-14 -13 -7 -33 16 -43 20 -10 20 -10 5 3 -22 18 -24 41
-2 33 8 -3 12 -2 9 4 -7 12 -19 13 -28 3z"/>
<path d="M1058 613 c6 -2 18 -2 25 0 6 3 1 5 -13 5 -14 0 -19 -2 -12 -5z"/>
<path d="M1185 610 c-3 -6 1 -7 9 -4 18 7 21 14 7 14 -6 0 -13 -4 -16 -10z"/>
<path d="M1225 610 c-3 -5 -1 -10 4 -10 6 0 11 5 11 10 0 6 -2 10 -4 10 -3 0
-8 -4 -11 -10z"/>
<path d="M1738 613 c12 -2 30 -2 40 0 9 3 -1 5 -23 4 -22 0 -30 -2 -17 -4z"/>
<path d="M1691 579 c-19 -20 -19 -21 23 -57 22 -21 50 -44 62 -52 11 -8 8 -3
-8 11 -21 19 -25 28 -16 37 16 16 43 15 58 -3 7 -8 17 -15 23 -15 5 0 -2 9
-16 20 -14 11 -28 20 -32 20 -3 0 -16 10 -28 23 -12 13 -16 16 -9 7 16 -21 15
-35 -1 -49 -11 -8 -19 -5 -37 14 -23 24 -23 25 -5 45 10 11 15 20 12 20 -3 0
-15 -9 -26 -21z"/>
<path d="M968 573 c7 -3 16 -2 19 1 4 3 -2 6 -13 5 -11 0 -14 -3 -6 -6z"/>
<path d="M570 556 c0 -2 8 -10 18 -17 15 -13 16 -12 3 4 -13 16 -21 21 -21 13z"/>
<path d="M1010 536 c7 -7 13 -7 20 0 6 6 3 10 -10 10 -13 0 -16 -4 -10 -10z"/>
<path d="M1187 539 c7 -7 15 -10 18 -7 3 3 -2 9 -12 12 -14 6 -15 5 -6 -5z"/>
<path d="M1631 516 c-21 -23 -22 -24 -5 -65 9 -23 18 -40 20 -38 3 2 -3 20
-11 40 -23 55 -19 55 37 2 29 -28 44 -40 34 -27 -19 22 -19 22 0 45 l19 22
-23 -19 c-22 -19 -22 -19 -47 4 -23 22 -24 25 -8 42 24 27 10 22 -16 -6z"/>
<path d="M574 467 c-52 -67 -66 -92 -26 -47 20 23 32 30 32 20 1 -8 10 5 21
29 11 24 18 45 16 47 -1 2 -21 -20 -43 -49z"/>
<path d="M525 490 c10 -11 20 -20 23 -20 3 0 -3 9 -13 20 -10 11 -20 20 -23
20 -3 0 3 -9 13 -20z"/>
<path d="M666 452 c-2 -4 -25 -23 -51 -41 -46 -33 -47 -33 -41 -10 4 17 2 16
-8 -6 -8 -16 -12 -32 -10 -34 2 -2 19 8 38 23 47 36 54 33 21 -10 -15 -19 -25
-37 -23 -40 3 -2 15 11 28 29 13 17 35 47 48 65 13 17 20 32 14 32 -6 0 -13
-3 -16 -8z"/>
<path d="M460 446 c0 -2 8 -10 18 -17 15 -13 16 -12 3 4 -13 16 -21 21 -21 13z"/>
<path d="M683 412 c-12 -20 -32 -53 -45 -71 -12 -19 -18 -32 -12 -28 13 8 87
127 82 132 -2 2 -13 -13 -25 -33z"/>
<path d="M1552 444 c8 -13 128 -107 128 -100 0 3 -5 17 -12 31 -8 18 -14 22
-19 13 -6 -9 -15 -6 -36 13 -39 35 -68 56 -61 43z"/>
<path d="M692 377 c-18 -34 -32 -67 -32 -73 0 -17 26 -35 42 -29 13 5 78 114
78 131 0 5 -14 -15 -30 -45 -34 -62 -49 -81 -62 -81 -22 0 -18 36 12 91 17 33
30 62 28 64 -2 2 -18 -24 -36 -58z"/>
<path d="M1530 436 c0 -3 20 -37 45 -74 25 -37 45 -64 45 -60 0 7 -74 126 -85
137 -3 2 -5 1 -5 -3z"/>
<path d="M1744 408 l-19 -23 23 19 c21 18 27 26 19 26 -2 0 -12 -10 -23 -22z"/>
<path d="M1486 358 c47 -93 52 -98 80 -86 13 6 22 13 20 15 -2 3 -13 0 -23 -6
-17 -9 -24 -2 -57 60 -44 81 -59 93 -20 17z"/>
<path d="M767 324 c-16 -42 -27 -77 -25 -80 2 -2 13 20 23 48 15 42 20 48 26
32 5 -13 8 -4 8 29 1 26 0 47 -1 47 -2 0 -16 -34 -31 -76z"/>
<path d="M1430 390 c-9 -6 -10 -10 -3 -10 6 0 15 5 18 10 8 12 4 12 -15 0z"/>
<path d="M1401 370 c0 -8 8 -29 17 -47 l17 -32 25 20 c24 20 24 20 2 9 -28
-14 -27 -14 -46 30 -8 19 -15 28 -15 20z"/>
<path d="M835 306 c-36 -48 -41 -51 -47 -32 -4 16 -6 12 -7 -14 l0 -35 39 45
c22 25 37 36 33 25 -10 -32 4 -13 20 28 22 51 9 46 -38 -17z"/>
<path d="M1326 351 c-3 -5 3 -33 13 -62 11 -30 20 -49 20 -43 1 6 -6 31 -14
54 -19 53 -19 50 9 50 20 0 28 -9 45 -57 12 -32 19 -45 15 -29 -12 63 -32 96
-58 96 -14 0 -27 -4 -30 -9z"/>
<path d="M963 333 c9 -2 25 -2 35 0 9 3 1 5 -18 5 -19 0 -27 -2 -17 -5z"/>
<path d="M1027 323 c-4 -3 -7 -16 -6 -27 0 -20 1 -20 10 2 13 35 43 24 50 -18
6 -35 6 -35 8 -4 0 16 -4 35 -11 42 -13 13 -41 16 -51 5z"/>
<path d="M1123 323 c-7 -2 -13 -9 -13 -15 0 -6 6 -6 15 2 12 10 18 10 30 0 24
-20 17 -133 -8 -138 -10 -2 -21 5 -26 20 -6 13 -10 18 -10 11 -2 -38 31 -57
57 -31 18 18 15 123 -4 142 -16 17 -21 18 -41 9z"/>
<path d="M1191 308 c0 -16 2 -18 6 -8 3 8 11 18 17 22 7 5 4 8 -6 8 -12 0 -18
-7 -17 -22z"/>
<path d="M1236 323 c6 -4 14 -15 17 -23 5 -11 6 -9 4 4 -1 11 -9 21 -17 23
-10 3 -11 2 -4 -4z"/>
<path d="M942 300 c0 -14 2 -19 5 -12 2 6 2 18 0 25 -3 6 -5 1 -5 -13z"/>
<path d="M1202 250 c0 -19 2 -27 5 -17 2 9 2 25 0 35 -3 9 -5 1 -5 -18z"/>
<path d="M1263 245 c0 -22 2 -30 4 -17 2 12 2 30 0 40 -3 9 -5 -1 -4 -23z"/>
<path d="M1441 274 c-1 -5 5 -19 13 -29 12 -16 17 -17 37 -7 l24 11 -26 -5
c-20 -4 -28 0 -37 18 -6 13 -11 18 -11 12z"/>
<path d="M832 241 c-6 -17 -9 -31 -6 -31 7 0 25 52 20 57 -2 2 -8 -10 -14 -26z"/>
<path d="M930 245 c0 -14 2 -25 4 -25 2 0 6 11 8 25 3 14 1 25 -3 25 -5 0 -9
-11 -9 -25z"/>
<path d="M968 253 c7 -3 16 -2 19 1 4 3 -2 6 -13 5 -11 0 -14 -3 -6 -6z"/>
<path d="M1011 223 c-1 -23 3 -44 7 -47 4 -2 6 12 4 32 -5 56 -10 62 -11 15z"/>
<path d="M1360 225 c0 -23 15 -32 38 -24 12 5 22 13 22 19 0 6 -8 5 -20 -2
-17 -11 -22 -10 -30 2 -5 8 -10 11 -10 5z"/>
<path d="M1068 197 c-3 -19 -2 -25 4 -19 6 6 8 18 6 28 -3 14 -5 12 -10 -9z"/>
<path d="M921 194 c0 -11 3 -14 6 -6 3 7 2 16 -1 19 -3 4 -6 -2 -5 -13z"/>
<path d="M1211 192 c-1 -20 3 -23 26 -20 14 2 28 9 29 16 1 7 0 8 -3 2 -8 -17
-41 -11 -46 8 -3 12 -5 11 -6 -6z"/>
</g>
</svg>
